<svg xmlns="http://www.w3.org/2000/svg" width="19.938" height="32.066" viewBox="0 0 19.938 32.066">
  <g id="Shirsoya" transform="translate(-108.395 -6.25)">
    <g id="milk_2" transform="translate(65.333 6.245)">
      <g id="Group_3844" data-name="Group 3844" transform="translate(43.062 0.005)">
        <path id="Path_8817" data-name="Path 8817" d="M52.906,5.255V0H46.343v5.25s-3.281,6.563-3.281,7.875V30.848a.657.657,0,0,0,.657.657H55.531a.656.656,0,0,0,.656-.657V13.13C56.187,11.817,52.906,5.255,52.906,5.255Z" transform="translate(-43.062 -0.005)" fill="#e5e8ec"/>
      </g>
      <g id="Group_3845" data-name="Group 3845" transform="translate(43.062 14.442)">
        <rect id="Rectangle_17431" data-name="Rectangle 17431" width="13.125" height="11.812" transform="translate(0)" fill="#4fc0e8"/>
      </g>
      <path id="Path_8818" data-name="Path 8818" d="M203.716,501.323a.657.657,0,0,0-.657.657h1.313A.656.656,0,0,0,203.716,501.323Z" transform="translate(-150.153 -470.475)" fill="#cbd0d8"/>
      <path id="Path_8819" data-name="Path 8819" d="M161.052,501.323a.656.656,0,0,0-.656.657h1.313A.657.657,0,0,0,161.052,501.323Z" transform="translate(-110.115 -470.475)" fill="#cbd0d8"/>
      <path id="Path_8820" data-name="Path 8820" d="M118.389,501.323a.656.656,0,0,0-.656.657h1.312A.656.656,0,0,0,118.389,501.323Z" transform="translate(-70.077 -470.475)" fill="#cbd0d8"/>
      <path id="Path_8821" data-name="Path 8821" d="M75.719,501.323a.657.657,0,0,0-.657.657h1.313A.656.656,0,0,0,75.719,501.323Z" transform="translate(-30.031 -470.475)" fill="#cbd0d8"/>
      <path id="Path_8822" data-name="Path 8822" d="M193.052,33.973V32.66a.657.657,0,0,0,0,1.313Z" transform="translate(-140.146 -30.646)" fill="#cbd0d8"/>
      <path id="Path_8823" data-name="Path 8823" d="M97.054,33.317a.656.656,0,0,0-.656-.657v1.313A.656.656,0,0,0,97.054,33.317Z" transform="translate(-50.055 -30.646)" fill="#cbd0d8"/>
      <g id="Group_3846" data-name="Group 3846" transform="translate(47.099 16.982)">
        <path id="Path_8824" data-name="Path 8824" d="M113.736,280.147a2.525,2.525,0,1,1-5.05,0c0-1.395,1.932-4.209,2.525-4.209S113.736,278.752,113.736,280.147Z" transform="translate(-108.686 -275.938)" fill="#e5e8ec"/>
      </g>
      <g id="Group_3849" data-name="Group 3849" transform="translate(51.594 0.005)" opacity="0.2">
        <path id="Path_8830" data-name="Path 8830" d="M183.044,5.255V0h-1.312v5.25s3.281,6.563,3.281,7.875V30.848a.656.656,0,0,1-.656.657h1.313a.656.656,0,0,0,.656-.657V13.13C186.326,11.817,183.044,5.255,183.044,5.255Z" transform="translate(-181.732 -0.005)" fill="#fff"/>
      </g>
      <path id="Path_8831" data-name="Path 8831" d="M93.608.661a.656.656,0,0,0-.657-.656H86.389a.656.656,0,1,0,0,1.312h6.562A.657.657,0,0,0,93.608.661Z" transform="translate(-40.046 0)" fill="#cbd0d8"/>
    </g>
    <g id="Group_3850" data-name="Group 3850" transform="translate(-14.69 -495.053)">
      <g id="Group_3549" data-name="Group 3549" transform="translate(129.397 524.803)">
        <g id="Group_3548" data-name="Group 3548" transform="translate(0 0)">
          <path id="Path_8293" data-name="Path 8293" d="M137.73,524.8c-2.179,0-6.867.2-7.99,2.509-1.387,2.839,1.651,5.283,5.084,5.943h.039c-.011-.013.027-.017.159,0,2.641.462,6.339-.463,7.66-3.038C144.2,527.246,140.306,524.8,137.73,524.8Z" transform="translate(-129.397 -524.803)" fill="#ebb053"/>
        </g>
      </g>
      <g id="Group_3550" data-name="Group 3550" transform="translate(129.397 525.731)" opacity="0.5" style="mix-blend-mode: multiply;isolation: isolate">
        <path id="Path_8294" data-name="Path 8294" d="M142.8,532.254a4.649,4.649,0,0,1-3.282,4.071c-2.443.858-5.811.924-7.858-.859a3.7,3.7,0,0,1-.057-5.279,3.526,3.526,0,0,0-1.857,1.581c-1.387,2.839,1.651,5.283,5.084,5.943h.039c-.011-.013.027-.017.159,0,2.641.462,6.339-.463,7.66-3.038A2.749,2.749,0,0,0,142.8,532.254Z" transform="translate(-129.397 -530.188)" fill="#ebb053"/>
      </g>
      <g id="Group_3553" data-name="Group 3553" transform="translate(134.171 525.62)">
        <g id="Group_3551" data-name="Group 3551" transform="translate(0 0)" opacity="0.5" style="mix-blend-mode: multiply;isolation: isolate">
          <path id="Path_8295" data-name="Path 8295" d="M163.474,525.189c-.733,0-3.043.62-1.409,1.24a6.068,6.068,0,0,0,3.776-.282c1.071-.958-1.663-1.071-2.339-.958" transform="translate(-161.493 -525.153)" fill="#bb7e48"/>
        </g>
        <g id="Group_3552" data-name="Group 3552" transform="translate(0.671 0.219)" opacity="0.5">
          <path id="Path_8296" data-name="Path 8296" d="M166,526.156c-.54,0-2.256.6-1.038.456a10.571,10.571,0,0,1,2.827-.042c.789-.352-1.269-.455-1.768-.413" transform="translate(-164.535 -526.147)" fill="#fff"/>
        </g>
      </g>
    </g>
  </g>
</svg>
